STARTFONT 2.1
FONT -Monotype-Rockwell-Regular-I-Normal--10-100-72-72-P-54-iso8859-1
SIZE 10 72 72
FONTBOUNDINGBOX 13 13 -1 -3

STARTPROPERTIES 22
FOUNDRY "Monotype"
FAMILY_NAME "Rockwell"
WEIGHT_NAME "Regular"
SLANT "I"
SETWIDTH_NAME "Normal"
ADD_STYLE_NAME ""
PIXEL_SIZE 10
POINT_SIZE 100
RESOLUTION_X 72
RESOLUTION_Y 72
SPACING "P"
AVERAGE_WIDTH 54
CHARSET_REGISTRY "iso8859"
CHARSET_ENCODING "1"
COPYRIGHT "Copyright (c) 1996 Monotype Typography Ltd."
CAP_HEIGHT 8
X_HEIGHT 6
WEIGHT 10
QUAD_WIDTH 6
DEFAULT_CHAR 32
FONT_DESCENT 3
FONT_ASCENT 10
ENDPROPERTIES

CHARS 191

STARTCHAR space
ENCODING 32
SWIDTH 250 0
DWIDTH 3 0
BBX 0 0 0 0
BITMAP
ENDCHAR

STARTCHAR exclam
ENCODING 33
SWIDTH 281 0
DWIDTH 3 0
BBX 3 7 1 0
BITMAP
20
20
40
40
40
00
80
ENDCHAR

STARTCHAR quotedbl
ENCODING 34
SWIDTH 417 0
DWIDTH 4 0
BBX 3 3 2 4
BITMAP
A0
A0
A0
ENDCHAR

STARTCHAR numbersign
ENCODING 35
SWIDTH 668 0
DWIDTH 7 0
BBX 6 7 1 0
BITMAP
28
28
FC
28
FC
50
50
ENDCHAR

STARTCHAR dollar
ENCODING 36
SWIDTH 479 0
DWIDTH 5 0
BBX 5 9 1 -1
BITMAP
10
30
58
60
20
30
D0
60
40
ENDCHAR

STARTCHAR percent
ENCODING 37
SWIDTH 1000 0
DWIDTH 10 0
BBX 9 7 1 0
BITMAP
4100
A200
A400
4900
1280
2280
4100
ENDCHAR

STARTCHAR ampersand
ENCODING 38
SWIDTH 625 0
DWIDTH 6 0
BBX 7 7 0 0
BITMAP
18
28
30
66
94
88
74
ENDCHAR

STARTCHAR quoteright
ENCODING 39
SWIDTH 281 0
DWIDTH 3 0
BBX 2 3 2 4
BITMAP
40
40
80
ENDCHAR

STARTCHAR parenleft
ENCODING 40
SWIDTH 375 0
DWIDTH 4 0
BBX 4 9 2 -2
BITMAP
10
20
40
40
80
80
80
40
40
ENDCHAR

STARTCHAR parenright
ENCODING 41
SWIDTH 375 0
DWIDTH 4 0
BBX 4 9 0 -2
BITMAP
20
20
10
10
10
20
20
40
80
ENDCHAR

STARTCHAR asterisk
ENCODING 42
SWIDTH 521 0
DWIDTH 5 0
BBX 5 4 1 3
BITMAP
20
B8
60
90
ENDCHAR

STARTCHAR plus
ENCODING 43
SWIDTH 667 0
DWIDTH 7 0
BBX 5 5 2 1
BITMAP
20
20
F8
20
20
ENDCHAR

STARTCHAR comma
ENCODING 44
SWIDTH 281 0
DWIDTH 3 0
BBX 2 3 0 -2
BITMAP
40
40
80
ENDCHAR

STARTCHAR minus
ENCODING 45
SWIDTH 667 0
DWIDTH 7 0
BBX 5 1 1 3
BITMAP
F8
ENDCHAR

STARTCHAR period
ENCODING 46
SWIDTH 281 0
DWIDTH 3 0
BBX 1 1 1 0
BITMAP
80
ENDCHAR

STARTCHAR slash
ENCODING 47
SWIDTH 438 0
DWIDTH 4 0
BBX 4 7 1 0
BITMAP
10
20
20
40
40
80
80
ENDCHAR

STARTCHAR zero
ENCODING 48
SWIDTH 531 0
DWIDTH 5 0
BBX 5 7 1 0
BITMAP
30
48
48
88
90
90
60
ENDCHAR

STARTCHAR one
ENCODING 49
SWIDTH 531 0
DWIDTH 5 0
BBX 4 7 1 0
BITMAP
30
10
20
20
20
40
E0
ENDCHAR

STARTCHAR two
ENCODING 50
SWIDTH 531 0
DWIDTH 5 0
BBX 5 7 1 0
BITMAP
30
48
48
10
20
50
F0
ENDCHAR

STARTCHAR three
ENCODING 51
SWIDTH 531 0
DWIDTH 5 0
BBX 5 7 1 0
BITMAP
30
48
08
30
10
90
60
ENDCHAR

STARTCHAR four
ENCODING 52
SWIDTH 531 0
DWIDTH 5 0
BBX 5 7 1 0
BITMAP
08
10
30
50
F8
20
70
ENDCHAR

STARTCHAR five
ENCODING 53
SWIDTH 531 0
DWIDTH 5 0
BBX 5 7 1 0
BITMAP
38
28
20
50
10
90
60
ENDCHAR

STARTCHAR six
ENCODING 54
SWIDTH 531 0
DWIDTH 5 0
BBX 5 7 1 0
BITMAP
18
20
40
60
90
90
60
ENDCHAR

STARTCHAR seven
ENCODING 55
SWIDTH 531 0
DWIDTH 5 0
BBX 4 7 2 0
BITMAP
F0
90
20
20
40
40
E0
ENDCHAR

STARTCHAR eight
ENCODING 56
SWIDTH 531 0
DWIDTH 5 0
BBX 5 7 1 0
BITMAP
30
48
48
70
90
90
60
ENDCHAR

STARTCHAR nine
ENCODING 57
SWIDTH 531 0
DWIDTH 5 0
BBX 5 7 1 0
BITMAP
30
48
48
30
10
20
C0
ENDCHAR

STARTCHAR colon
ENCODING 58
SWIDTH 281 0
DWIDTH 3 0
BBX 2 5 1 0
BITMAP
40
00
00
00
80
ENDCHAR

STARTCHAR semicolon
ENCODING 59
SWIDTH 281 0
DWIDTH 3 0
BBX 3 7 0 -2
BITMAP
20
00
00
00
40
40
80
ENDCHAR

STARTCHAR less
ENCODING 60
SWIDTH 667 0
DWIDTH 7 0
BBX 5 5 1 1
BITMAP
08
30
C0
30
08
ENDCHAR

STARTCHAR equal
ENCODING 61
SWIDTH 667 0
DWIDTH 7 0
BBX 5 3 1 2
BITMAP
F8
00
F8
ENDCHAR

STARTCHAR greater
ENCODING 62
SWIDTH 667 0
DWIDTH 7 0
BBX 5 5 2 1
BITMAP
80
60
18
60
80
ENDCHAR

STARTCHAR question
ENCODING 63
SWIDTH 458 0
DWIDTH 5 0
BBX 4 7 1 0
BITMAP
60
90
10
60
40
00
80
ENDCHAR

STARTCHAR at
ENCODING 64
SWIDTH 1010 0
DWIDTH 10 0
BBX 9 10 1 -2
BITMAP
1E00
2100
4C80
9280
9480
A480
A500
9A00
4080
3F00
ENDCHAR

STARTCHAR A
ENCODING 65
SWIDTH 646 0
DWIDTH 6 0
BBX 7 7 0 0
BITMAP
1E
0C
14
24
3C
44
EE
ENDCHAR

STARTCHAR B
ENCODING 66
SWIDTH 563 0
DWIDTH 6 0
BBX 7 7 0 0
BITMAP
3C
12
22
3C
24
44
F8
ENDCHAR

STARTCHAR C
ENCODING 67
SWIDTH 719 0
DWIDTH 7 0
BBX 7 7 1 0
BITMAP
1E
22
40
80
80
84
78
ENDCHAR

STARTCHAR D
ENCODING 68
SWIDTH 708 0
DWIDTH 7 0
BBX 8 7 0 0
BITMAP
3E
11
21
21
22
42
FC
ENDCHAR

STARTCHAR E
ENCODING 69
SWIDTH 573 0
DWIDTH 6 0
BBX 7 7 0 0
BITMAP
3E
12
20
38
20
44
F8
ENDCHAR

STARTCHAR F
ENCODING 70
SWIDTH 521 0
DWIDTH 5 0
BBX 7 7 0 0
BITMAP
3E
12
20
38
20
40
E0
ENDCHAR

STARTCHAR G
ENCODING 71
SWIDTH 781 0
DWIDTH 8 0
BBX 7 7 1 0
BITMAP
1E
22
40
80
8E
84
78
ENDCHAR

STARTCHAR H
ENCODING 72
SWIDTH 677 0
DWIDTH 7 0
BBX 9 7 0 0
BITMAP
3B80
1100
2200
3E00
2200
4400
EE00
ENDCHAR

STARTCHAR I
ENCODING 73
SWIDTH 292 0
DWIDTH 3 0
BBX 5 7 0 0
BITMAP
38
10
20
20
20
40
E0
ENDCHAR

STARTCHAR J
ENCODING 74
SWIDTH 292 0
DWIDTH 3 0
BBX 6 9 -1 -2
BITMAP
1C
08
10
10
10
20
20
20
C0
ENDCHAR

STARTCHAR K
ENCODING 75
SWIDTH 594 0
DWIDTH 6 0
BBX 8 7 0 0
BITMAP
3B
14
28
30
28
48
EC
ENDCHAR

STARTCHAR L
ENCODING 76
SWIDTH 490 0
DWIDTH 5 0
BBX 6 7 0 0
BITMAP
38
10
20
20
24
48
F8
ENDCHAR

STARTCHAR M
ENCODING 77
SWIDTH 833 0
DWIDTH 8 0
BBX 11 7 0 0
BITMAP
38E0
1940
2A80
2A80
4D00
4900
EB80
ENDCHAR

STARTCHAR N
ENCODING 78
SWIDTH 698 0
DWIDTH 7 0
BBX 9 7 0 0
BITMAP
3380
1100
2A00
2A00
2A00
4400
E400
ENDCHAR

STARTCHAR O
ENCODING 79
SWIDTH 781 0
DWIDTH 8 0
BBX 8 7 1 0
BITMAP
1E
21
41
81
82
84
78
ENDCHAR

STARTCHAR P
ENCODING 80
SWIDTH 542 0
DWIDTH 5 0
BBX 6 7 0 0
BITMAP
38
14
24
38
20
40
E0
ENDCHAR

STARTCHAR Q
ENCODING 81
SWIDTH 781 0
DWIDTH 8 0
BBX 8 8 1 -1
BITMAP
1E
21
41
81
82
84
78
8C
ENDCHAR

STARTCHAR R
ENCODING 82
SWIDTH 583 0
DWIDTH 6 0
BBX 7 7 0 0
BITMAP
3C
12
22
3C
28
44
E6
ENDCHAR

STARTCHAR S
ENCODING 83
SWIDTH 521 0
DWIDTH 5 0
BBX 5 7 1 0
BITMAP
38
48
40
20
10
90
E0
ENDCHAR

STARTCHAR T
ENCODING 84
SWIDTH 583 0
DWIDTH 6 0
BBX 7 7 1 0
BITMAP
7E
94
A4
20
20
40
E0
ENDCHAR

STARTCHAR U
ENCODING 85
SWIDTH 635 0
DWIDTH 6 0
BBX 7 7 1 0
BITMAP
EE
44
44
88
88
88
70
ENDCHAR

STARTCHAR V
ENCODING 86
SWIDTH 677 0
DWIDTH 7 0
BBX 8 7 1 0
BITMAP
E7
42
44
48
50
60
40
ENDCHAR

STARTCHAR W
ENCODING 87
SWIDTH 990 0
DWIDTH 10 0
BBX 11 7 1 0
BITMAP
EEE0
4440
4C80
5500
5500
6600
4400
ENDCHAR

STARTCHAR X
ENCODING 88
SWIDTH 635 0
DWIDTH 6 0
BBX 7 7 1 0
BITMAP
76
24
28
10
28
48
EC
ENDCHAR

STARTCHAR Y
ENCODING 89
SWIDTH 573 0
DWIDTH 6 0
BBX 7 7 1 0
BITMAP
EE
44
48
30
20
40
E0
ENDCHAR

STARTCHAR Z
ENCODING 90
SWIDTH 563 0
DWIDTH 6 0
BBX 7 7 1 0
BITMAP
3E
24
08
10
24
48
F8
ENDCHAR

STARTCHAR bracketleft
ENCODING 91
SWIDTH 313 0
DWIDTH 3 0
BBX 5 9 0 -2
BITMAP
18
10
20
20
20
40
40
80
C0
ENDCHAR

STARTCHAR backslash
ENCODING 92
SWIDTH 438 0
DWIDTH 4 0
BBX 4 7 1 0
BITMAP
80
80
40
40
20
20
10
ENDCHAR

STARTCHAR bracketright
ENCODING 93
SWIDTH 313 0
DWIDTH 3 0
BBX 5 9 -1 -2
BITMAP
18
08
10
10
10
20
20
40
C0
ENDCHAR

STARTCHAR asciicircum
ENCODING 94
SWIDTH 427 0
DWIDTH 4 0
BBX 5 4 1 3
BITMAP
20
50
50
88
ENDCHAR

STARTCHAR underscore
ENCODING 95
SWIDTH 500 0
DWIDTH 5 0
BBX 5 1 0 -2
BITMAP
F8
ENDCHAR

STARTCHAR quoteleft
ENCODING 96
SWIDTH 281 0
DWIDTH 3 0
BBX 2 3 2 4
BITMAP
40
80
80
ENDCHAR

STARTCHAR a
ENCODING 97
SWIDTH 531 0
DWIDTH 5 0
BBX 4 5 1 0
BITMAP
60
10
70
A0
70
ENDCHAR

STARTCHAR b
ENCODING 98
SWIDTH 615 0
DWIDTH 6 0
BBX 6 7 0 0
BITMAP
30
10
38
24
24
48
F0
ENDCHAR

STARTCHAR c
ENCODING 99
SWIDTH 500 0
DWIDTH 5 0
BBX 5 5 1 0
BITMAP
38
48
80
90
60
ENDCHAR

STARTCHAR d
ENCODING 100
SWIDTH 604 0
DWIDTH 6 0
BBX 6 7 1 0
BITMAP
0C
04
38
48
88
90
78
ENDCHAR

STARTCHAR e
ENCODING 101
SWIDTH 552 0
DWIDTH 6 0
BBX 5 5 1 0
BITMAP
30
48
F0
80
70
ENDCHAR

STARTCHAR f
ENCODING 102
SWIDTH 281 0
DWIDTH 3 0
BBX 4 7 0 0
BITMAP
10
20
70
20
40
40
E0
ENDCHAR

STARTCHAR g
ENCODING 103
SWIDTH 604 0
DWIDTH 6 0
BBX 6 7 1 -2
BITMAP
3C
48
88
90
70
10
E0
ENDCHAR

STARTCHAR h
ENCODING 104
SWIDTH 552 0
DWIDTH 6 0
BBX 6 7 0 0
BITMAP
30
10
28
34
24
48
EC
ENDCHAR

STARTCHAR i
ENCODING 105
SWIDTH 281 0
DWIDTH 3 0
BBX 4 7 0 0
BITMAP
10
00
60
20
40
40
E0
ENDCHAR

STARTCHAR j
ENCODING 106
SWIDTH 281 0
DWIDTH 3 0
BBX 5 9 -1 -2
BITMAP
08
00
30
10
20
20
20
40
C0
ENDCHAR

STARTCHAR k
ENCODING 107
SWIDTH 521 0
DWIDTH 5 0
BBX 7 7 0 0
BITMAP
30
10
26
28
30
48
EC
ENDCHAR

STARTCHAR l
ENCODING 108
SWIDTH 281 0
DWIDTH 3 0
BBX 4 7 0 0
BITMAP
30
10
20
20
20
40
E0
ENDCHAR

STARTCHAR m
ENCODING 109
SWIDTH 844 0
DWIDTH 8 0
BBX 9 5 0 0
BITMAP
6D00
3680
2480
4900
ED80
ENDCHAR

STARTCHAR n
ENCODING 110
SWIDTH 552 0
DWIDTH 6 0
BBX 6 5 0 0
BITMAP
68
34
24
48
EC
ENDCHAR

STARTCHAR o
ENCODING 111
SWIDTH 563 0
DWIDTH 6 0
BBX 5 5 1 0
BITMAP
30
48
88
90
60
ENDCHAR

STARTCHAR p
ENCODING 112
SWIDTH 604 0
DWIDTH 6 0
BBX 7 7 -1 -2
BITMAP
3C
12
22
24
38
40
E0
ENDCHAR

STARTCHAR q
ENCODING 113
SWIDTH 604 0
DWIDTH 6 0
BBX 6 7 1 -2
BITMAP
3C
48
88
B0
50
20
70
ENDCHAR

STARTCHAR r
ENCODING 114
SWIDTH 396 0
DWIDTH 4 0
BBX 5 5 0 0
BITMAP
58
20
40
40
E0
ENDCHAR

STARTCHAR s
ENCODING 115
SWIDTH 427 0
DWIDTH 4 0
BBX 5 5 0 0
BITMAP
30
48
20
90
60
ENDCHAR

STARTCHAR t
ENCODING 116
SWIDTH 292 0
DWIDTH 3 0
BBX 4 7 1 0
BITMAP
20
20
70
40
40
80
C0
ENDCHAR

STARTCHAR u
ENCODING 117
SWIDTH 552 0
DWIDTH 6 0
BBX 5 5 1 0
BITMAP
D8
48
90
B0
D8
ENDCHAR

STARTCHAR v
ENCODING 118
SWIDTH 479 0
DWIDTH 5 0
BBX 6 5 0 0
BITMAP
EC
48
50
60
40
ENDCHAR

STARTCHAR w
ENCODING 119
SWIDTH 740 0
DWIDTH 7 0
BBX 9 5 0 0
BITMAP
EB80
4900
5A00
6C00
4800
ENDCHAR

STARTCHAR x
ENCODING 120
SWIDTH 510 0
DWIDTH 5 0
BBX 6 5 0 0
BITMAP
7C
10
20
50
F0
ENDCHAR

STARTCHAR y
ENCODING 121
SWIDTH 510 0
DWIDTH 5 0
BBX 7 7 -1 -2
BITMAP
76
24
28
30
20
20
C0
ENDCHAR

STARTCHAR z
ENCODING 122
SWIDTH 417 0
DWIDTH 4 0
BBX 5 5 0 0
BITMAP
78
50
20
50
F0
ENDCHAR

STARTCHAR braceleft
ENCODING 123
SWIDTH 333 0
DWIDTH 3 0
BBX 3 9 1 -2
BITMAP
20
40
40
40
80
40
40
40
20
ENDCHAR

STARTCHAR bar
ENCODING 124
SWIDTH 527 0
DWIDTH 5 0
BBX 1 9 3 -2
BITMAP
80
80
80
80
80
80
80
80
80
ENDCHAR

STARTCHAR braceright
ENCODING 125
SWIDTH 333 0
DWIDTH 3 0
BBX 3 9 1 -2
BITMAP
80
40
40
40
20
40
40
40
80
ENDCHAR

STARTCHAR asciitilde
ENCODING 126
SWIDTH 583 0
DWIDTH 6 0
BBX 6 2 1 3
BITMAP
64
98
ENDCHAR

STARTCHAR space
ENCODING 160
SWIDTH 250 0
DWIDTH 3 0
BBX 0 0 0 0
BITMAP
ENDCHAR

STARTCHAR exclamdown
ENCODING 161
SWIDTH 281 0
DWIDTH 3 0
BBX 3 7 0 -2
BITMAP
20
00
40
40
40
80
80
ENDCHAR

STARTCHAR cent
ENCODING 162
SWIDTH 500 0
DWIDTH 5 0
BBX 5 10 1 -3
BITMAP
10
10
38
68
A0
D0
60
40
80
80
ENDCHAR

STARTCHAR sterling
ENCODING 163
SWIDTH 458 0
DWIDTH 5 0
BBX 5 7 0 0
BITMAP
18
28
20
70
20
48
B0
ENDCHAR

STARTCHAR currency
ENCODING 164
SWIDTH 667 0
DWIDTH 7 0
BBX 5 5 1 1
BITMAP
A8
50
88
50
A8
ENDCHAR

STARTCHAR yen
ENCODING 165
SWIDTH 573 0
DWIDTH 6 0
BBX 8 7 0 0
BITMAP
77
22
FF
18
FE
20
70
ENDCHAR

STARTCHAR brokenbar
ENCODING 166
SWIDTH 527 0
DWIDTH 5 0
BBX 1 9 3 -2
BITMAP
80
80
80
80
00
80
80
80
80
ENDCHAR

STARTCHAR section
ENCODING 167
SWIDTH 448 0
DWIDTH 4 0
BBX 6 9 -1 -2
BITMAP
18
24
20
50
48
28
10
90
60
ENDCHAR

STARTCHAR dieresis
ENCODING 168
SWIDTH 333 0
DWIDTH 3 0
BBX 3 1 1 6
BITMAP
A0
ENDCHAR

STARTCHAR copyright
ENCODING 169
SWIDTH 740 0
DWIDTH 7 0
BBX 7 7 1 0
BITMAP
38
44
9A
A2
9A
44
38
ENDCHAR

STARTCHAR ordfeminine
ENCODING 170
SWIDTH 344 0
DWIDTH 3 0
BBX 4 3 1 4
BITMAP
E0
60
B0
ENDCHAR

STARTCHAR guillemotleft
ENCODING 171
SWIDTH 458 0
DWIDTH 5 0
BBX 5 5 1 0
BITMAP
28
50
A0
A0
50
ENDCHAR

STARTCHAR logicalnot
ENCODING 172
SWIDTH 667 0
DWIDTH 7 0
BBX 5 3 2 2
BITMAP
F8
08
08
ENDCHAR

STARTCHAR hyphen
ENCODING 173
SWIDTH 385 0
DWIDTH 4 0
BBX 3 1 1 2
BITMAP
E0
ENDCHAR

STARTCHAR registered
ENCODING 174
SWIDTH 740 0
DWIDTH 7 0
BBX 7 7 1 0
BITMAP
38
44
BA
B2
AA
44
38
ENDCHAR

STARTCHAR macron
ENCODING 175
SWIDTH 333 0
DWIDTH 3 0
BBX 3 1 1 6
BITMAP
E0
ENDCHAR

STARTCHAR degree
ENCODING 176
SWIDTH 396 0
DWIDTH 4 0
BBX 3 3 1 4
BITMAP
40
A0
40
ENDCHAR

STARTCHAR plusminus
ENCODING 177
SWIDTH 667 0
DWIDTH 7 0
BBX 5 7 1 0
BITMAP
20
20
F8
20
20
00
F8
ENDCHAR

STARTCHAR twosuperior
ENCODING 178
SWIDTH 323 0
DWIDTH 3 0
BBX 3 4 1 3
BITMAP
60
20
40
E0
ENDCHAR

STARTCHAR threesuperior
ENCODING 179
SWIDTH 323 0
DWIDTH 3 0
BBX 3 4 1 3
BITMAP
60
40
20
C0
ENDCHAR

STARTCHAR acute
ENCODING 180
SWIDTH 333 0
DWIDTH 3 0
BBX 2 2 2 5
BITMAP
40
80
ENDCHAR

STARTCHAR mu
ENCODING 181
SWIDTH 552 0
DWIDTH 6 0
BBX 6 7 0 -2
BITMAP
24
24
48
58
6C
80
80
ENDCHAR

STARTCHAR paragraph
ENCODING 182
SWIDTH 542 0
DWIDTH 5 0
BBX 6 9 0 -2
BITMAP
7C
E8
E8
68
28
28
28
28
28
ENDCHAR

STARTCHAR periodcentered
ENCODING 183
SWIDTH 292 0
DWIDTH 3 0
BBX 2 1 1 3
BITMAP
C0
ENDCHAR

STARTCHAR cedilla
ENCODING 184
SWIDTH 333 0
DWIDTH 3 0
BBX 2 2 0 -2
BITMAP
40
C0
ENDCHAR

STARTCHAR onesuperior
ENCODING 185
SWIDTH 323 0
DWIDTH 3 0
BBX 2 4 2 3
BITMAP
40
40
80
80
ENDCHAR

STARTCHAR ordmasculine
ENCODING 186
SWIDTH 365 0
DWIDTH 4 0
BBX 3 4 2 3
BITMAP
60
A0
A0
C0
ENDCHAR

STARTCHAR guillemotright
ENCODING 187
SWIDTH 458 0
DWIDTH 5 0
BBX 5 5 0 0
BITMAP
50
28
28
50
A0
ENDCHAR

STARTCHAR onequarter
ENCODING 188
SWIDTH 1000 0
DWIDTH 10 0
BBX 7 7 2 0
BITMAP
42
44
88
92
24
4E
84
ENDCHAR

STARTCHAR onehalf
ENCODING 189
SWIDTH 1000 0
DWIDTH 10 0
BBX 7 7 2 0
BITMAP
42
44
88
96
22
44
8E
ENDCHAR

STARTCHAR threequarters
ENCODING 190
SWIDTH 1000 0
DWIDTH 10 0
BBX 8 7 2 0
BITMAP
61
42
24
C9
12
27
42
ENDCHAR

STARTCHAR questiondown
ENCODING 191
SWIDTH 458 0
DWIDTH 5 0
BBX 4 7 0 -2
BITMAP
10
00
20
60
80
90
60
ENDCHAR

STARTCHAR Agrave
ENCODING 192
SWIDTH 646 0
DWIDTH 6 0
BBX 7 10 0 0
BITMAP
08
04
00
1E
0C
14
24
3C
44
EE
ENDCHAR

STARTCHAR Aacute
ENCODING 193
SWIDTH 646 0
DWIDTH 6 0
BBX 7 10 0 0
BITMAP
02
04
00
1E
0C
14
24
3C
44
EE
ENDCHAR

STARTCHAR Acircumflex
ENCODING 194
SWIDTH 646 0
DWIDTH 6 0
BBX 7 10 0 0
BITMAP
06
0A
00
1E
0C
14
24
3C
44
EE
ENDCHAR

STARTCHAR Atilde
ENCODING 195
SWIDTH 646 0
DWIDTH 6 0
BBX 7 10 0 0
BITMAP
0A
14
00
1E
0C
14
24
3C
44
EE
ENDCHAR

STARTCHAR Adieresis
ENCODING 196
SWIDTH 646 0
DWIDTH 6 0
BBX 7 9 0 0
BITMAP
0A
00
1E
0C
14
24
3C
44
EE
ENDCHAR

STARTCHAR Aring
ENCODING 197
SWIDTH 646 0
DWIDTH 6 0
BBX 7 10 0 0
BITMAP
04
0A
04
1E
0C
14
24
3C
44
EE
ENDCHAR

STARTCHAR AE
ENCODING 198
SWIDTH 969 0
DWIDTH 10 0
BBX 11 7 0 0
BITMAP
1FE0
0920
1200
3F80
2200
4440
EF80
ENDCHAR

STARTCHAR Ccedilla
ENCODING 199
SWIDTH 719 0
DWIDTH 7 0
BBX 7 9 1 -2
BITMAP
1E
22
40
80
80
84
78
20
60
ENDCHAR

STARTCHAR Egrave
ENCODING 200
SWIDTH 573 0
DWIDTH 6 0
BBX 7 10 0 0
BITMAP
10
08
00
3E
12
20
38
20
44
F8
ENDCHAR

STARTCHAR Eacute
ENCODING 201
SWIDTH 573 0
DWIDTH 6 0
BBX 7 10 0 0
BITMAP
04
08
00
3E
12
20
38
20
44
F8
ENDCHAR

STARTCHAR Ecircumflex
ENCODING 202
SWIDTH 573 0
DWIDTH 6 0
BBX 7 10 0 0
BITMAP
06
0A
00
3E
12
20
38
20
44
F8
ENDCHAR

STARTCHAR Edieresis
ENCODING 203
SWIDTH 573 0
DWIDTH 6 0
BBX 7 9 0 0
BITMAP
0A
00
3E
12
20
38
20
44
F8
ENDCHAR

STARTCHAR Igrave
ENCODING 204
SWIDTH 292 0
DWIDTH 3 0
BBX 5 10 0 0
BITMAP
10
08
00
38
10
20
20
20
40
E0
ENDCHAR

STARTCHAR Iacute
ENCODING 205
SWIDTH 292 0
DWIDTH 3 0
BBX 5 10 0 0
BITMAP
08
10
00
38
10
20
20
20
40
E0
ENDCHAR

STARTCHAR Icircumflex
ENCODING 206
SWIDTH 292 0
DWIDTH 3 0
BBX 6 10 0 0
BITMAP
0C
14
00
38
10
20
20
20
40
E0
ENDCHAR

STARTCHAR Idieresis
ENCODING 207
SWIDTH 292 0
DWIDTH 3 0
BBX 6 9 0 0
BITMAP
14
00
38
10
20
20
20
40
E0
ENDCHAR

STARTCHAR Eth
ENCODING 208
SWIDTH 708 0
DWIDTH 7 0
BBX 8 7 0 0
BITMAP
3E
11
21
79
22
42
FC
ENDCHAR

STARTCHAR Ntilde
ENCODING 209
SWIDTH 698 0
DWIDTH 7 0
BBX 9 10 0 0
BITMAP
0500
0A00
0000
3380
1100
2A00
2A00
2A00
4400
E400
ENDCHAR

STARTCHAR Ograve
ENCODING 210
SWIDTH 781 0
DWIDTH 8 0
BBX 8 10 1 0
BITMAP
08
04
00
1E
21
41
81
82
84
78
ENDCHAR

STARTCHAR Oacute
ENCODING 211
SWIDTH 781 0
DWIDTH 8 0
BBX 8 10 1 0
BITMAP
02
04
00
1E
21
41
81
82
84
78
ENDCHAR

STARTCHAR Ocircumflex
ENCODING 212
SWIDTH 781 0
DWIDTH 8 0
BBX 8 10 1 0
BITMAP
06
0A
00
1E
21
41
81
82
84
78
ENDCHAR

STARTCHAR Otilde
ENCODING 213
SWIDTH 781 0
DWIDTH 8 0
BBX 8 10 1 0
BITMAP
05
0A
00
1E
21
41
81
82
84
78
ENDCHAR

STARTCHAR Odieresis
ENCODING 214
SWIDTH 781 0
DWIDTH 8 0
BBX 8 9 1 0
BITMAP
0A
00
1E
21
41
81
82
84
78
ENDCHAR

STARTCHAR multiply
ENCODING 215
SWIDTH 668 0
DWIDTH 7 0
BBX 5 5 2 1
BITMAP
88
50
20
50
88
ENDCHAR

STARTCHAR Oslash
ENCODING 216
SWIDTH 781 0
DWIDTH 8 0
BBX 8 9 1 -1
BITMAP
01
1E
25
49
89
92
A4
78
80
ENDCHAR

STARTCHAR Ugrave
ENCODING 217
SWIDTH 635 0
DWIDTH 6 0
BBX 7 10 1 0
BITMAP
20
10
00
EE
44
44
88
88
88
70
ENDCHAR

STARTCHAR Uacute
ENCODING 218
SWIDTH 635 0
DWIDTH 6 0
BBX 7 10 1 0
BITMAP
08
10
00
EE
44
44
88
88
88
70
ENDCHAR

STARTCHAR Ucircumflex
ENCODING 219
SWIDTH 635 0
DWIDTH 6 0
BBX 7 10 1 0
BITMAP
18
28
00
EE
44
44
88
88
88
70
ENDCHAR

STARTCHAR Udieresis
ENCODING 220
SWIDTH 635 0
DWIDTH 6 0
BBX 7 9 1 0
BITMAP
28
00
EE
44
44
88
88
88
70
ENDCHAR

STARTCHAR Yacute
ENCODING 221
SWIDTH 573 0
DWIDTH 6 0
BBX 7 10 1 0
BITMAP
08
10
00
EE
44
48
30
20
40
E0
ENDCHAR

STARTCHAR Thorn
ENCODING 222
SWIDTH 542 0
DWIDTH 5 0
BBX 6 7 0 0
BITMAP
30
10
38
24
38
40
E0
ENDCHAR

STARTCHAR germandbls
ENCODING 223
SWIDTH 615 0
DWIDTH 6 0
BBX 6 7 0 0
BITMAP
18
24
24
28
44
44
D8
ENDCHAR

STARTCHAR agrave
ENCODING 224
SWIDTH 531 0
DWIDTH 5 0
BBX 4 8 1 0
BITMAP
40
20
00
60
10
70
A0
70
ENDCHAR

STARTCHAR aacute
ENCODING 225
SWIDTH 531 0
DWIDTH 5 0
BBX 4 8 1 0
BITMAP
10
20
00
60
10
70
A0
70
ENDCHAR

STARTCHAR acircumflex
ENCODING 226
SWIDTH 531 0
DWIDTH 5 0
BBX 4 8 1 0
BITMAP
30
50
00
60
10
70
A0
70
ENDCHAR

STARTCHAR atilde
ENCODING 227
SWIDTH 531 0
DWIDTH 5 0
BBX 5 8 1 0
BITMAP
28
50
00
60
10
70
A0
70
ENDCHAR

STARTCHAR adieresis
ENCODING 228
SWIDTH 531 0
DWIDTH 5 0
BBX 4 7 1 0
BITMAP
50
00
60
10
70
A0
70
ENDCHAR

STARTCHAR aring
ENCODING 229
SWIDTH 531 0
DWIDTH 5 0
BBX 4 8 1 0
BITMAP
20
50
20
60
10
70
A0
70
ENDCHAR

STARTCHAR ae
ENCODING 230
SWIDTH 865 0
DWIDTH 9 0
BBX 8 5 0 0
BITMAP
36
09
7F
90
6E
ENDCHAR

STARTCHAR ccedilla
ENCODING 231
SWIDTH 500 0
DWIDTH 5 0
BBX 5 7 1 -2
BITMAP
38
48
80
90
60
40
C0
ENDCHAR

STARTCHAR egrave
ENCODING 232
SWIDTH 552 0
DWIDTH 6 0
BBX 5 8 1 0
BITMAP
20
10
00
30
48
F0
80
70
ENDCHAR

STARTCHAR eacute
ENCODING 233
SWIDTH 552 0
DWIDTH 6 0
BBX 5 8 1 0
BITMAP
08
10
00
30
48
F0
80
70
ENDCHAR

STARTCHAR ecircumflex
ENCODING 234
SWIDTH 552 0
DWIDTH 6 0
BBX 5 8 1 0
BITMAP
18
28
00
30
48
F0
80
70
ENDCHAR

STARTCHAR edieresis
ENCODING 235
SWIDTH 552 0
DWIDTH 6 0
BBX 5 7 1 0
BITMAP
28
00
30
48
F0
80
70
ENDCHAR

STARTCHAR igrave
ENCODING 236
SWIDTH 281 0
DWIDTH 3 0
BBX 3 8 0 0
BITMAP
40
20
00
60
20
40
40
E0
ENDCHAR

STARTCHAR iacute
ENCODING 237
SWIDTH 281 0
DWIDTH 3 0
BBX 4 8 0 0
BITMAP
10
20
00
60
20
40
40
E0
ENDCHAR

STARTCHAR icircumflex
ENCODING 238
SWIDTH 281 0
DWIDTH 3 0
BBX 4 8 0 0
BITMAP
30
50
00
60
20
40
40
E0
ENDCHAR

STARTCHAR idieresis
ENCODING 239
SWIDTH 281 0
DWIDTH 3 0
BBX 4 7 0 0
BITMAP
50
00
60
20
40
40
E0
ENDCHAR

STARTCHAR eth
ENCODING 240
SWIDTH 635 0
DWIDTH 6 0
BBX 5 8 1 0
BITMAP
48
30
50
38
48
88
90
60
ENDCHAR

STARTCHAR ntilde
ENCODING 241
SWIDTH 552 0
DWIDTH 6 0
BBX 6 8 0 0
BITMAP
14
28
00
68
34
24
48
EC
ENDCHAR

STARTCHAR ograve
ENCODING 242
SWIDTH 563 0
DWIDTH 6 0
BBX 5 8 1 0
BITMAP
40
20
00
30
48
88
90
60
ENDCHAR

STARTCHAR oacute
ENCODING 243
SWIDTH 563 0
DWIDTH 6 0
BBX 5 8 1 0
BITMAP
08
10
00
30
48
88
90
60
ENDCHAR

STARTCHAR ocircumflex
ENCODING 244
SWIDTH 563 0
DWIDTH 6 0
BBX 5 8 1 0
BITMAP
18
28
00
30
48
88
90
60
ENDCHAR

STARTCHAR otilde
ENCODING 245
SWIDTH 563 0
DWIDTH 6 0
BBX 6 8 1 0
BITMAP
14
28
00
30
48
88
90
60
ENDCHAR

STARTCHAR odieresis
ENCODING 246
SWIDTH 563 0
DWIDTH 6 0
BBX 5 7 1 0
BITMAP
28
00
30
48
88
90
60
ENDCHAR

STARTCHAR divide
ENCODING 247
SWIDTH 668 0
DWIDTH 7 0
BBX 5 5 2 1
BITMAP
20
00
F8
00
20
ENDCHAR

STARTCHAR oslash
ENCODING 248
SWIDTH 563 0
DWIDTH 6 0
BBX 5 7 1 -1
BITMAP
08
30
58
A8
D0
60
80
ENDCHAR

STARTCHAR ugrave
ENCODING 249
SWIDTH 552 0
DWIDTH 6 0
BBX 5 8 1 0
BITMAP
20
10
00
D8
48
90
B0
D8
ENDCHAR

STARTCHAR uacute
ENCODING 250
SWIDTH 552 0
DWIDTH 6 0
BBX 5 8 1 0
BITMAP
10
20
00
D8
48
90
B0
D8
ENDCHAR

STARTCHAR ucircumflex
ENCODING 251
SWIDTH 552 0
DWIDTH 6 0
BBX 5 8 1 0
BITMAP
18
28
00
D8
48
90
B0
D8
ENDCHAR

STARTCHAR udieresis
ENCODING 252
SWIDTH 552 0
DWIDTH 6 0
BBX 5 7 1 0
BITMAP
28
00
D8
48
90
B0
D8
ENDCHAR

STARTCHAR yacute
ENCODING 253
SWIDTH 510 0
DWIDTH 5 0
BBX 7 10 -1 -2
BITMAP
04
08
00
76
24
28
30
20
20
C0
ENDCHAR

STARTCHAR thorn
ENCODING 254
SWIDTH 604 0
DWIDTH 6 0
BBX 7 9 -1 -2
BITMAP
18
08
1C
12
12
24
38
40
E0
ENDCHAR

STARTCHAR ydieresis
ENCODING 255
SWIDTH 510 0
DWIDTH 5 0
BBX 7 9 -1 -2
BITMAP
14
00
76
24
28
30
20
20
C0
ENDCHAR
ENDFONT
